<svg xmlns="http://www.w3.org/2000/svg" xmlns:xlink="http://www.w3.org/1999/xlink" width="672" height="225" viewBox="0 0 672 225">
  <defs>
    <clipPath id="clip-path">
      <rect id="Rectangle_1144" data-name="Rectangle 1144" width="672" height="225" transform="translate(0 0.496)" fill="#fff" stroke="#707070" stroke-width="1"/>
    </clipPath>
  </defs>
  <g id="Mask_Group_114" data-name="Mask Group 114" transform="translate(0 -0.496)" clip-path="url(#clip-path)">
    <g id="Group_1793" data-name="Group 1793" transform="translate(0 45.741)">
      <path id="Path_4093" data-name="Path 4093" d="M-396.338,5229.873c-3.8-1.562-5.109-4.462-4.851-8.433.2-3,.039-6.033.039-9.178.858-.038,1.5-.068,2.158-.093a2.565,2.565,0,0,1,.319.762c.034,3.11.022,6.222.068,9.335.046,3.132,2.041,5.393,4.762,5.462,2.818.069,5.028-2.247,5.083-5.458.057-3.268.013-6.539.013-10l2.256-.113a3.846,3.846,0,0,1,.247.855c.02,2.855-.12,5.727.062,8.574.257,4.032-1.3,6.8-5.1,8.286Z" transform="translate(614.498 -5095.07)"/>
      <path id="Path_4094" data-name="Path 4094" d="M-21.633,5229.262c-1.221-.666-2.442-1.327-3.807-2.064.51-.727.876-1.251,1.167-1.664a32.51,32.51,0,0,0,4.62,1.462c1.77.283,3.461-.265,4.024-2.195.551-1.89-.9-2.7-2.327-3.343-1.452-.653-2.988-1.136-4.39-1.875-1.708-.9-2.844-2.509-2.213-4.339a7.132,7.132,0,0,1,2.951-3.626c2.417-1.363,5.478-.657,8.425,1.406-.369.567-.743,1.149-1.049,1.619-1.556-.524-2.917-1.386-4.231-1.316-1.21.062-2.37,1.116-3.551,1.73a11.91,11.91,0,0,0,2.178,2.9c1.123.815,2.624,1.079,3.9,1.7a4.648,4.648,0,0,1,3,4.525,4.809,4.809,0,0,1-3.285,4.592,9.111,9.111,0,0,0-.86.486Z" transform="translate(429.101 -5094.456)"/>
      <path id="Path_4095" data-name="Path 4095" d="M-359.224,5222.65c-2.3-.936-3.14-2.6-3-5.094.191-3.42.048-6.856.048-10.4-1.006-.1-1.816-.178-2.621-.25-.4-1.825-.4-1.825,2.622-2.293,0-1.681.069-3.421-.02-5.161-.087-1.705.527-2.334,2.459-1.685v6.463c1.3,1.545,4.214-.812,4.284,2.633l-4.268.25c0,3.78-.067,7.458.021,11.129.07,2.907,2.567,1.588,4.656,2.265-.663.864-1.157,1.505-1.651,2.145Z" transform="translate(596.617 -5087.843)"/>
      <path id="Path_4096" data-name="Path 4096" d="M-50.4,5044.9h23.379v5.124c4.918-4.35,10.2-6.534,16.34-6.145,6.3.4,11.184,3.376,14.881,8.63a24.339,24.339,0,0,1,15.46-8.492c10.013-1.4,19.786,3.677,23.047,12.121a15.009,15.009,0,0,1,1.214,5.12c.1,14.045.055,28.092.055,42.342H20.423c-.04-.793-.122-1.68-.123-2.562q-.013-15.014-.008-30.033c0-3.379-1-5.083-3.494-6.056a6.948,6.948,0,0,0-7.341,2.009,5.057,5.057,0,0,0-.853,2.968c-.06,10.265-.036,20.528-.036,30.791v2.916H-15.017c-.041-.9-.114-1.787-.116-2.683q-.012-15.011-.008-30.034c0-3.39-1.152-5.2-3.811-6.08a7.219,7.219,0,0,0-7.264,2.358,5.259,5.259,0,0,0-.623,2.824c-.042,10.264-.026,20.527-.026,30.79v2.855H-50.4Z" transform="translate(441.418 -5011.996)"/>
      <path id="Path_4097" data-name="Path 4097" d="M-354.82,5103.668h-23.632v-58.705h23.544c-.076,1.705-.145,3.272-.215,4.88,13.818-8.745,21.378-8.161,31.415,2.517a24.154,24.154,0,0,1,15.337-8.354c10.861-1.524,21.025,4.457,23.638,14.085a19.532,19.532,0,0,1,.742,4.967c.059,13.035.033,26.078.026,39.119,0,.409-.071.819-.128,1.422H-307.6c-.046-.806-.138-1.687-.138-2.567q0-15.267.026-30.538c0-3.005-1.564-5.151-4.239-5.805-2.324-.568-6.167.872-7.118,2.826a5.8,5.8,0,0,0-.305,2.443q-.027,15.395-.012,30.794v2.879h-23.661c-.043-.907-.123-1.8-.124-2.685-.009-10.014-.042-20.026.019-30.037.016-2.7-.8-4.8-3.368-5.921a6.617,6.617,0,0,0-7.357,1.868,4.969,4.969,0,0,0-.9,2.949c-.063,10.263-.039,20.527-.039,30.791Z" transform="translate(603.265 -5011.991)"/>
      <path id="Path_4098" data-name="Path 4098" d="M-144.3,5045.972h23.706v33.02c0,14.484-9.339,24.818-23.816,26.482-7.608.878-15.032.408-21.907-3.191-8.648-4.528-13.183-11.813-13.3-21.584-.129-10.68-.029-21.365-.029-32.045v-2.61h23.7v2.694c0,9.5-.019,19.008.011,28.514.012,3.76,1.486,5.906,4.325,6.529,4.065.886,7.277-1.74,7.294-6.082.037-9.587.012-19.178.012-28.766Z" transform="translate(505.199 -5013.077)"/>
      <path id="Path_4099" data-name="Path 4099" d="M-539.862,5048.476h-6.753v-20.558h6.74v-18.47h23.639v18.385h10.312v20.6H-516.1c0,5.408-.094,10.595.052,15.771.05,1.774,1.552,2.524,3.228,2.574,2.087.066,4.179.017,6.394.017v19.984c-7.557.835-14.974,1.967-22.434.229-7.152-1.674-10.924-6.343-10.987-13.695-.062-7.234-.013-14.47-.013-21.709Z" transform="translate(686.23 -4995.059)"/>
      <path id="Path_4100" data-name="Path 4100" d="M-422.8,5104.811h-23.6v-38.145h-6.874v-20.559H-422.8Z" transform="translate(640.179 -5013.144)"/>
      <path id="Path_4101" data-name="Path 4101" d="M-430.445,4981.044a14.425,14.425,0,0,1,14.423,14.447,14.419,14.419,0,0,1-14.534,14.334,14.3,14.3,0,0,1-14.477-14.323A14.308,14.308,0,0,1-430.445,4981.044Z" transform="translate(636.114 -4981.044)"/>
      <path id="Path_4102" data-name="Path 4102" d="M-336.616,5219.489h-2.245a3.129,3.129,0,0,1-.245-.787c-.023-8.243-.01-16.484-.064-24.729-.011-1.642.613-2.119,2.372-1.515v11.036c2.466-.6,4.741-1.483,7.062-1.627a5.18,5.18,0,0,1,5.438,4.923c.19,4.18.049,8.375.049,12.669h-2.5c0-3.648.014-7.168,0-10.689-.016-2.958-1.541-4.767-3.993-4.794-3.148-.04-5.846,2.19-5.864,4.894C-336.634,5212.312-336.616,5215.754-336.616,5219.489Z" transform="translate(583.884 -5085.225)"/>
      <path id="Path_4103" data-name="Path 4103" d="M-205.746,5212.079a15.128,15.128,0,0,1-1.358,3.335c-2.928,3.865-5.972,7.645-9.236,11.78h9.827c.638,1.419.651,2.235-1.075,2.219-3.862-.027-7.724,0-12.234,0a15.025,15.025,0,0,1,1.342-3.27c2.944-3.87,6-7.66,9.285-11.82h-9.96l-.525-.728c.5-.5.987-1.429,1.5-1.446C-214.237,5212.024-210.292,5212.079-205.746,5212.079Z" transform="translate(525.002 -5095.024)"/>
      <path id="Path_4104" data-name="Path 4104" d="M49.987,5219.58H47.753v-27.159h2.234Z" transform="translate(392.99 -5085.331)"/>
      <path id="Path_4105" data-name="Path 4105" d="M65.486,5219.406c-1.884.54-2.389-.149-2.375-1.834q.1-11.7,0-23.4c-.014-1.684.492-2.374,2.375-1.831Z" transform="translate(385.413 -5085.204)"/>
      <path id="Path_4106" data-name="Path 4106" d="M128.094,5213.149c-5.791,1.024-6.435,1.812-6.435,7.672,0,2.509,0,5.015,0,7.655l-2.347.1v-17.744c1.128.684,1.962,1.187,2.719,1.649,1.629-.57,3.592-1.254,5.937-2.068C128.03,5211.783,128.062,5212.479,128.094,5213.149Z" transform="translate(357.686 -5094.209)"/>
      <path id="Path_4107" data-name="Path 4107" d="M-83.225,5228.452h-2.421V5210.9c1.158.617,2.005,1.073,2.85,1.526,1.515-.54,3.4-1.209,5.653-2.006.1,1.313.159,2.01.224,2.841-.665.079-1.145.135-1.624.193-3.242.4-4.627,1.872-4.672,5.106C-83.26,5221.817-83.225,5225.07-83.225,5228.452Z" transform="translate(458.804 -5094.21)"/>
      <path id="Path_4108" data-name="Path 4108" d="M-255.221,5228.866h-2.423v-17.6c1.185.683,2,1.155,2.506,1.445,1.888-.43,3.763-.888,5.661-1.2a15.023,15.023,0,0,1,.667,2.114c-.906.115-1.543.184-2.175.28-2.768.427-4.155,1.909-4.219,4.747C-255.279,5221.993-255.221,5225.335-255.221,5228.866Z" transform="translate(543.662 -5094.629)"/>
      <path id="Path_4109" data-name="Path 4109" d="M-232.317,5212.221v17h-2.326V5214.37l-2.616-.4C-237.385,5211.758-237.223,5211.7-232.317,5212.221Z" transform="translate(533.617 -5094.965)"/>
      <path id="Path_4110" data-name="Path 4110" d="M-229.172,5197.836c-1.375.987-2.214,2.055-2.952,1.993-.779-.069-1.461-1.226-2.185-1.9.736-.756,1.377-1.926,2.239-2.123C-231.448,5195.666-230.532,5196.829-229.172,5197.836Z" transform="translate(532.15 -5086.993)"/>
      <path id="Path_4111" data-name="Path 4111" d="M-129.451,5193.54c0-2.117-1.32-1.279-2.632-1.208V5204.6c-4.376-3.3-7.633-3.679-11.063-1.462a9.192,9.192,0,0,0-3.963,9.858c.8,3.646,3.4,5.611,6.618,6.987h4.556c1.234-.9,2.468-1.793,3.96-2.872-.246,2.252.536,2.9,2.53,2.126C-129.447,5210.637-129.442,5202.088-129.451,5193.54Zm-8.476,24.337a6.645,6.645,0,0,1-6.854-6.573,7.063,7.063,0,0,1,6.966-7.389,7.075,7.075,0,0,1,6.938,6.912A7.066,7.066,0,0,1-137.928,5217.876Z" transform="translate(489.245 -5085.176)"/>
      <path id="Path_4112" data-name="Path 4112" d="M-177.128,5211.2a8.967,8.967,0,0,0-10.058,7.171c-.981,4.8,1.152,8.311,6.676,10.988h4.555c2.058-1.332,4.557-2.2,5.134-5.257a9.341,9.341,0,0,0-3.56,1.513,6.026,6.026,0,0,1-6.6,1.021,5.616,5.616,0,0,1-3.63-5.6h14.543C-169.734,5215.787-172.678,5211.845-177.128,5211.2Zm-7.339,7.567a5.926,5.926,0,0,1,5.884-5.472c2.97.044,5.238,2.144,5.69,5.472Z" transform="translate(509.014 -5094.551)"/>
      <path id="Path_4113" data-name="Path 4113" d="M15.882,5211.253a9.128,9.128,0,0,0-6.52,16.7c.757.483,1.535.93,2.3,1.393h5.062c1.9-1.414,4.485-2.143,4.836-5.228a8.619,8.619,0,0,0-3.352,1.453c-2.126,1.651-4.353,2.144-6.812.962a5.718,5.718,0,0,1-3.5-5.6H22.516C22.71,5215.825,20.085,5212.131,15.882,5211.253ZM8.2,5218.827a5.689,5.689,0,0,1,5.669-5.547,5.851,5.851,0,0,1,5.776,5.547Z" transform="translate(414.025 -5094.534)"/>
      <path id="Path_4114" data-name="Path 4114" d="M-53.719,5211.329a9.029,9.029,0,0,0-10.3,5.338,9.161,9.161,0,0,0,3.494,11.288c.757.477,1.532.927,2.3,1.391h5.062c1.9-1.419,4.51-2.137,4.895-5.229a8.289,8.289,0,0,0-3.362,1.423,6.035,6.035,0,0,1-6.576,1.133,5.854,5.854,0,0,1-3.8-5.7h14.6C-47.071,5216.1-49.609,5212.365-53.719,5211.329Zm-7.9,7.536a5.527,5.527,0,0,1,5.27-5.569c3.017-.269,5.668,2.03,6.147,5.569Z" transform="translate(448.489 -5094.538)"/>
      <path id="Path_4115" data-name="Path 4115" d="M86.543,5211.188a9.008,9.008,0,0,0-9.756,7.838c-.522,5.219,2.158,8.353,6.65,10.351h4.556c2.13-1.246,4.569-2.151,5.249-5.177a8.3,8.3,0,0,0-3.494,1.383,6.048,6.048,0,0,1-6.806,1,5.883,5.883,0,0,1-3.554-5.541H93.875C94.523,5215.848,91.3,5211.652,86.543,5211.188Zm-6.875,7.7a5.732,5.732,0,0,1,5.341-5.544c3.034-.273,5.488,1.776,6.312,5.544Z" transform="translate(378.697 -5094.57)"/>
      <path id="Path_4116" data-name="Path 4116" d="M-425.029,5216.448a5.036,5.036,0,0,0-4.178-5.039,10.44,10.44,0,0,0-9.1,1.953c.484.673.86,1.2,1.183,1.649a14.979,14.979,0,0,1,3.415-1.313c1.445-.17,3.195-.333,4.342.319.96.548,1.455,2.241,1.676,3.511.056.323-1.657,1.215-2.641,1.4-1.473.275-3.043,0-4.531.225-3.6.541-5.476,4.062-3.694,7.195.69,1.216,2.121,2.012,3.214,3h5.062l1.811-1.369c1.364.456,2.279.762,3.47,1.157C-425,5224.513-424.917,5220.48-425.029,5216.448Zm-4.274,9.726a7.617,7.617,0,0,1-4.918.6,3.737,3.737,0,0,1-2.012-3.089c.109-.931,1.687-2.135,2.809-2.392,1.741-.4,3.644-.107,5.766-.107C-427.269,5223.11-427.4,5225.195-429.3,5226.174Z" transform="translate(633.255 -5094.536)"/>
      <path id="Path_4117" data-name="Path 4117" d="M-283.961,5217.177a9.239,9.239,0,0,0-10.464-5.99,8.9,8.9,0,0,0-7.342,8.948c0,4.658,2.771,7.31,6.631,9.188h5.062c.645-.362,1.289-.726,1.936-1.082A9.17,9.17,0,0,0-283.961,5217.177Zm-9.418,10.036a7.034,7.034,0,0,1-6.817-7,7.038,7.038,0,0,1,7.126-6.955,6.646,6.646,0,0,1,6.772,6.66A7.139,7.139,0,0,1-293.379,5227.213Z" transform="translate(565.43 -5094.515)"/>
      <path id="Path_4118" data-name="Path 4118" d="M-621.437,5055.344c-9-15.676-28.93-17.289-38.466-7.788-.08.077-.308.008-.484.008-.065-1.224-.13-2.439-.2-3.712H-683.99V5118H-660.4v-19.232a6.926,6.926,0,0,1,.925.539c9.108,8.423,24.849,6.4,33.114-1.864C-615.988,5087.072-613.79,5068.672-621.437,5055.344Zm-29.42,27.9a9.946,9.946,0,0,1-10.083-10.022,10.112,10.112,0,0,1,9.97-9.972,10.126,10.126,0,0,1,10.081,10.107A9.923,9.923,0,0,1-650.857,5083.242Z" transform="translate(754.006 -5010.96)"/>
      <path id="Path_4119" data-name="Path 4119" d="M-789.732,5042c-18.725.072-32.494,13.753-32.457,32.25.035,17.223,14.53,30.584,33.111,30.523,18.223-.06,32.313-13.785,32.266-31.429C-756.859,5055.544-771.158,5041.928-789.732,5042Zm.247,41.4a9.844,9.844,0,0,1-10.01-9.819,9.936,9.936,0,0,1,9.938-10.2,10.134,10.134,0,0,1,10.094,10.12A10.046,10.046,0,0,1-789.485,5083.4Z" transform="translate(822.189 -5011.121)"/>
      <circle id="Ellipse_673" data-name="Ellipse 673" cx="14.55" cy="14.55" r="14.55" transform="translate(487.461 62.253)" fill="#f66608"/>
    </g>
  </g>
</svg>
